<svg width="310" height="125" viewBox="0 0 310 125" fill="none" xmlns="http://www.w3.org/2000/svg">
<g filter="url(#filter0_d_311_186)">
<path fill-rule="evenodd" clip-rule="evenodd" d="M29 43H65C72.1797 43 78 48.8203 78 56V92C78 99.1797 72.1797 105 65 105H64V117H65C78.8071 117 90 105.807 90 92V56C90 42.1929 78.8071 31 65 31H29C15.1929 31 4 42.1929 4 56V88H16V56C16 48.8203 21.8203 43 29 43Z" fill="#004274"/>
<rect x="4" y="95" width="12" height="22" rx="2" fill="#00AEEF"/>
<rect x="24" y="80" width="12" height="37" rx="2" fill="#00AEEF"/>
<rect x="45" y="68" width="12" height="49" rx="2" fill="#00AEEF"/>
</g>
<g filter="url(#filter1_d_311_186)">
<path d="M161.354 80.304H135.898L131.168 92H113.796L140.37 31.8H157.14L183.8 92H166.084L161.354 80.304ZM156.366 67.748L148.626 48.484L140.886 67.748H156.366ZM238.937 78.498V92H192.067V81.336L214.599 60.266C216.778 58.202 218.24 56.4533 218.985 55.02C219.731 53.5293 220.103 52.0387 220.103 50.548C220.103 48.5987 219.444 47.0793 218.125 45.99C216.807 44.9007 214.886 44.356 212.363 44.356C210.127 44.356 208.063 44.872 206.171 45.904C204.337 46.8787 202.817 48.312 201.613 50.204L188.971 43.152C191.322 39.2533 194.619 36.186 198.861 33.95C203.104 31.714 208.121 30.596 213.911 30.596C218.498 30.596 222.54 31.3413 226.037 32.832C229.592 34.3227 232.344 36.4727 234.293 39.282C236.3 42.034 237.303 45.2447 237.303 48.914C237.303 52.182 236.587 55.278 235.153 58.202C233.777 61.0687 231.083 64.3367 227.069 68.006L215.717 78.498H238.937ZM304.782 78.498V92H250.86V81.336L281.218 45.302H251.634V31.8H303.492V42.464L273.134 78.498H304.782Z" fill="#00AEEF"/>
</g>
<g filter="url(#filter2_d_311_186)">
<path d="M117.904 111.324H116.621V116H114.037V103.203H118.159C119.454 103.203 120.453 103.54 121.156 104.214C121.865 104.882 122.22 105.834 122.22 107.07C122.22 108.77 121.602 109.959 120.365 110.639L122.606 115.877V116H119.829L117.904 111.324ZM116.621 109.171H118.089C118.604 109.171 118.991 109.001 119.249 108.661C119.507 108.315 119.636 107.855 119.636 107.281C119.636 105.998 119.135 105.356 118.133 105.356H116.621V109.171ZM140.054 110.463H136.029V113.855H140.793V116H133.445V103.203H140.775V105.356H136.029V108.38H140.054V110.463ZM157.845 113.381H154.321L153.635 116H150.902L154.901 103.203H157.265L161.291 116H158.531L157.845 113.381ZM154.883 111.228H157.274L156.079 106.666L154.883 111.228ZM174.529 113.855H179.064V116H171.945V103.203H174.529V113.855ZM210.216 110.463H206.19V113.855H210.954V116H203.606V103.203H210.937V105.356H206.19V108.38H210.216V110.463ZM227.304 112.643C227.304 112.121 227.169 111.729 226.899 111.465C226.636 111.195 226.152 110.917 225.449 110.63C224.166 110.144 223.243 109.575 222.68 108.925C222.118 108.269 221.837 107.495 221.837 106.604C221.837 105.526 222.218 104.662 222.979 104.012C223.747 103.355 224.72 103.027 225.897 103.027C226.682 103.027 227.383 103.194 227.998 103.528C228.613 103.856 229.085 104.322 229.413 104.926C229.747 105.529 229.914 106.215 229.914 106.982H227.339C227.339 106.385 227.21 105.931 226.952 105.62C226.7 105.304 226.334 105.146 225.853 105.146C225.402 105.146 225.051 105.28 224.799 105.55C224.547 105.813 224.421 106.171 224.421 106.622C224.421 106.974 224.561 107.293 224.843 107.58C225.124 107.861 225.622 108.154 226.337 108.459C227.585 108.91 228.49 109.464 229.053 110.12C229.621 110.776 229.905 111.611 229.905 112.625C229.905 113.738 229.551 114.608 228.842 115.235C228.133 115.862 227.169 116.176 225.95 116.176C225.124 116.176 224.371 116.006 223.691 115.666C223.012 115.326 222.478 114.84 222.092 114.207C221.711 113.574 221.52 112.827 221.52 111.966H224.113C224.113 112.704 224.257 113.24 224.544 113.574C224.831 113.908 225.3 114.075 225.95 114.075C226.852 114.075 227.304 113.598 227.304 112.643ZM249.357 105.356H246.193V116H243.6V105.356H240.489V103.203H249.357V105.356ZM265.346 113.381H261.822L261.136 116H258.403L262.402 103.203H264.766L268.791 116H266.032L265.346 113.381ZM262.384 111.228H264.775L263.579 106.666L262.384 111.228ZM286.679 105.356H283.515V116H280.922V105.356H277.811V103.203H286.679V105.356ZM304.224 110.463H300.198V113.855H304.962V116H297.614V103.203H304.944V105.356H300.198V108.38H304.224V110.463Z" fill="#004274"/>
</g>
<defs>
<filter id="filter0_d_311_186" x="0" y="31" width="94" height="94" filterUnits="userSpaceOnUse" color-interpolation-filters="sRGB">
<feFlood flood-opacity="0" result="BackgroundImageFix"/>
<feColorMatrix in="SourceAlpha" type="matrix" values="0 0 0 0 0 0 0 0 0 0 0 0 0 0 0 0 0 0 127 0" result="hardAlpha"/>
<feOffset dy="4"/>
<feGaussianBlur stdDeviation="2"/>
<feComposite in2="hardAlpha" operator="out"/>
<feColorMatrix type="matrix" values="0 0 0 0 0 0 0 0 0 0 0 0 0 0 0 0 0 0 0.25 0"/>
<feBlend mode="normal" in2="BackgroundImageFix" result="effect1_dropShadow_311_186"/>
<feBlend mode="normal" in="SourceGraphic" in2="effect1_dropShadow_311_186" result="shape"/>
</filter>
<filter id="filter1_d_311_186" x="109.796" y="30.5959" width="198.986" height="69.4041" filterUnits="userSpaceOnUse" color-interpolation-filters="sRGB">
<feFlood flood-opacity="0" result="BackgroundImageFix"/>
<feColorMatrix in="SourceAlpha" type="matrix" values="0 0 0 0 0 0 0 0 0 0 0 0 0 0 0 0 0 0 127 0" result="hardAlpha"/>
<feOffset dy="4"/>
<feGaussianBlur stdDeviation="2"/>
<feComposite in2="hardAlpha" operator="out"/>
<feColorMatrix type="matrix" values="0 0 0 0 0 0 0 0 0 0 0 0 0 0 0 0 0 0 0.25 0"/>
<feBlend mode="normal" in2="BackgroundImageFix" result="effect1_dropShadow_311_186"/>
<feBlend mode="normal" in="SourceGraphic" in2="effect1_dropShadow_311_186" result="shape"/>
</filter>
<filter id="filter2_d_311_186" x="110.037" y="103.027" width="198.925" height="21.1484" filterUnits="userSpaceOnUse" color-interpolation-filters="sRGB">
<feFlood flood-opacity="0" result="BackgroundImageFix"/>
<feColorMatrix in="SourceAlpha" type="matrix" values="0 0 0 0 0 0 0 0 0 0 0 0 0 0 0 0 0 0 127 0" result="hardAlpha"/>
<feOffset dy="4"/>
<feGaussianBlur stdDeviation="2"/>
<feComposite in2="hardAlpha" operator="out"/>
<feColorMatrix type="matrix" values="0 0 0 0 0 0 0 0 0 0 0 0 0 0 0 0 0 0 0.25 0"/>
<feBlend mode="normal" in2="BackgroundImageFix" result="effect1_dropShadow_311_186"/>
<feBlend mode="normal" in="SourceGraphic" in2="effect1_dropShadow_311_186" result="shape"/>
</filter>
</defs>
</svg>
