<?xml version="1.0" encoding="iso-8859-1"?>
<!-- Generator: Adobe Illustrator 19.0.0, SVG Export Plug-In . SVG Version: 6.00 Build 0)  -->
<svg version="1.1" id="Capa_1" xmlns="http://www.w3.org/2000/svg" xmlns:xlink="http://www.w3.org/1999/xlink" x="0px" y="0px"
	 viewBox="0 0 503.972 503.972" style="enable-background:new 0 0 503.972 503.972;" xml:space="preserve">
<g>
	<path style="fill:#0377BC;" d="M323.148,495.396h96.525c4.63-0.013,8.38-3.763,8.393-8.393V16.97
		c-0.013-4.63-3.763-8.38-8.393-8.393H16.787c-4.63,0.013-8.38,3.763-8.393,8.393v470.033c0.013,4.63,3.763,8.38,8.393,8.393
		H323.148z"/>
	<path style="fill:#02A9F4;" d="M304.262,495.396h90.733c4.489-0.156,8.011-3.904,7.89-8.393V16.97
		c0.122-4.49-3.401-8.237-7.89-8.393H16.283c-4.489,0.156-8.011,3.904-7.89,8.393v470.033c-0.122,4.49,3.401,8.237,7.89,8.393
		H304.262z"/>
	<g>
		<path style="fill:#FDD834;" d="M327.344,454.688v43.646H109.115v-43.646c0-60.262,48.852-109.115,109.115-109.115
			S327.344,394.425,327.344,454.688L327.344,454.688z"/>
		<path style="fill:#FDD834;" d="M327.344,5.638v43.646c0,60.262-48.852,109.115-109.115,109.115S109.115,109.547,109.115,49.284
			V5.638H327.344z"/>
	</g>
	<g>
		<path style="fill:#FFEB3A;" d="M306.361,454.688v43.646H109.115v-43.646c0-60.144,44.262-109.115,98.623-109.115
			S306.361,394.543,306.361,454.688z"/>
		<path style="fill:#FFEB3A;" d="M306.361,5.638v43.646c0,60.144-44.262,109.115-98.623,109.115s-98.623-48.971-98.623-109.115
			V5.638H306.361z"/>
	</g>
	<path style="fill:#D84315;" d="M483.714,185.846c-1.52,2.693-3.231,5.273-5.12,7.722c-2.31,3.057-4.834,5.946-7.554,8.645
		c-6.219,6.213-13.387,11.398-21.235,15.36c-2.475,1.274-5.027,2.396-7.639,3.357c-2.77,1.087-5.6,2.011-8.477,2.77
		c-2.644,0.765-5.336,1.354-8.058,1.763l-3.777,0.504c-0.5,0.07-1.005,0.098-1.51,0.084c-1.763,0.252-3.443,0.336-5.205,0.42h-0.503
		c-1.566,0.098-3.138,0.07-4.7-0.084c-4.082,0.015-8.157-0.35-12.171-1.092c-2.406-0.504-4.812-1.007-7.218-1.511
		c-2.35-0.671-4.616-1.343-6.967-2.182c-2.316-0.829-4.585-1.781-6.798-2.854c-0.923-0.42-1.847-0.839-2.77-1.343
		c-5.495-2.782-10.649-6.19-15.36-10.156c-1.847-1.595-3.693-3.273-5.455-5.036c-2.85-2.799-5.461-5.831-7.807-9.065
		c-1.991-2.517-3.787-5.183-5.372-7.974c-1.235-2.092-2.355-4.25-3.357-6.463c-1.073-2.213-2.025-4.483-2.854-6.799
		c-0.892-2.268-1.621-4.596-2.182-6.967c-0.66-2.347-1.193-4.729-1.594-7.134c-0.976-5.483-1.37-11.053-1.176-16.619v-0.839
		c0.084-1.679,0.168-3.441,0.336-5.12c0.014-0.48,0.071-0.957,0.168-1.427l0.504-3.777c0.503-2.77,1.09-5.456,1.847-8.142
		c0.863-3.345,1.957-6.626,3.273-9.82c1.217-2.952,2.591-5.838,4.114-8.645c3.773-6.862,8.523-13.138,14.101-18.633
		c3.09-3.096,6.431-5.931,9.988-8.477c2.691-1.995,5.524-3.79,8.477-5.372c1.775-1.084,3.626-2.037,5.539-2.854h0.084
		c4.497-2.11,9.193-3.768,14.017-4.952c10.905-2.835,22.28-3.378,33.406-1.595c2.485,0.346,4.951,0.822,7.386,1.427
		c0.404,0.062,0.799,0.174,1.175,0.336h0.084c1.479,0.331,2.937,0.751,4.365,1.259c0.655,0.157,1.299,0.353,1.93,0.588
		c0.672,0.252,1.259,0.504,1.93,0.755c0.503,0.168,1.091,0.42,1.595,0.588c3.412,1.356,6.722,2.955,9.905,4.784
		c4.63,2.576,8.989,5.613,13.01,9.065c1.731,1.391,3.384,2.877,4.952,4.449c4.13,4.166,7.815,8.751,10.995,13.681
		c2.91,4.409,5.357,9.106,7.303,14.017c0.26,0.545,0.484,1.105,0.671,1.679c0.098,0.218,0.182,0.443,0.251,0.671l0.504,1.259
		c0.168,0.504,0.336,1.007,0.504,1.595c0.42,1.427,0.923,2.854,1.258,4.281c0.168,0.504,0.252,0.923,0.42,1.427
		C498.262,144.615,494.942,167.074,483.714,185.846L483.714,185.846z"/>
	<path style="fill:#FF5722;" d="M458.366,177.704c-1.52,2.693-3.231,5.273-5.12,7.722c-2.31,3.057-4.834,5.946-7.554,8.645
		c-6.219,6.213-13.387,11.398-21.235,15.36c-2.475,1.274-5.027,2.395-7.639,3.357c-2.769,1.087-5.6,2.012-8.476,2.77
		c-2.644,0.765-5.336,1.354-8.058,1.763l-3.777,0.504c-0.5,0.07-1.005,0.098-1.51,0.084c-1.763,0.252-3.441,0.336-5.205,0.42h-0.503
		c-1.566,0.098-3.138,0.07-4.7-0.084c-3.543,0.016-7.08-0.265-10.576-0.839c-5.495-2.781-10.649-6.19-15.36-10.156
		c-1.847-1.595-3.693-3.273-5.455-5.036c-2.85-2.799-5.461-5.831-7.807-9.065c-1.991-2.517-3.787-5.183-5.372-7.974
		c-1.235-2.092-2.355-4.25-3.357-6.463c-1.073-2.213-2.025-4.483-2.854-6.799c-0.892-2.268-1.621-4.596-2.182-6.967
		c-0.66-2.347-1.193-4.729-1.594-7.134c-0.976-5.483-1.37-11.053-1.176-16.619v-0.839c0.084-1.679,0.168-3.441,0.336-5.12
		c0.014-0.48,0.071-0.957,0.168-1.427l0.504-3.777c0.503-2.77,1.09-5.456,1.847-8.142c0.863-3.345,1.957-6.626,3.273-9.82
		c1.217-2.952,2.591-5.838,4.114-8.645c3.773-6.862,8.523-13.138,14.101-18.633c3.09-3.096,6.431-5.931,9.988-8.477
		c2.691-1.995,5.524-3.79,8.477-5.372c1.775-1.084,3.626-2.037,5.539-2.854h0.084c4.497-2.11,9.193-3.768,14.017-4.952
		c10.905-2.835,22.28-3.378,33.406-1.595c1.007,0.504,2.015,1.007,3.022,1.595c4.63,2.576,8.989,5.613,13.01,9.065
		c1.731,1.391,3.384,2.877,4.952,4.449c4.13,4.166,7.815,8.751,10.995,13.681c2.911,4.408,5.358,9.106,7.304,14.017
		c0.26,0.544,0.485,1.105,0.671,1.679c0.098,0.218,0.182,0.443,0.252,0.671l0.503,1.259c0.168,0.504,0.336,1.007,0.504,1.595
		c0.42,1.427,0.923,2.854,1.258,4.281c0.168,0.504,0.252,0.923,0.42,1.427C472.914,136.474,469.594,158.933,458.366,177.704
		L458.366,177.704z"/>
	<path d="M501.295,121.207c-0.221-0.807-0.361-1.221-0.361-1.193c-0.373-1.557-0.824-3.095-1.352-4.607
		c-0.197-0.709-0.426-1.389-0.705-2.213c-0.238-0.672-0.484-1.34-0.762-2.008c-0.206-0.631-0.444-1.25-0.713-1.857
		c-9.341-23.119-27.688-41.441-50.82-50.75c-0.68-0.287-1.385-0.549-1.746-0.672c-0.746-0.307-1.516-0.59-2.271-0.861
		c-0.729-0.258-1.434-0.492-2.172-0.688c-1.284-0.453-2.6-0.811-3.934-1.144V16.97c-0.011-9.267-7.52-16.776-16.787-16.787H16.787
		C7.52,0.193,0.011,7.703,0,16.97v470.033c0.011,9.267,7.52,16.776,16.787,16.787h402.885c9.267-0.011,16.776-7.52,16.787-16.787
		V231.908c15.365-4.163,29.378-12.262,40.656-23.496c4.15-4.226,7.874-8.85,11.119-13.805c0.841-0.816,1.5-1.799,1.934-2.887
		C503.213,170.67,507.224,145.251,501.295,121.207z M482.139,116.322c0.112,0.413,0.257,0.816,0.434,1.205
		c0.189,0.434,0.344,0.873,0.443,1.16l0.533,1.684c0.402,1.156,0.77,2.307,1.262,4.258l0.238,0.795
		c4.613,18.223,2.117,37.518-6.979,53.967c-2.772-0.435-5.471-0.816-8.398-1.373c-1.09-0.209-2.277-0.521-3.387-0.749
		c3.263-6.137,5.849-12.609,7.715-19.304c4.723-18.446,4.853-37.769,0.378-56.277C477.475,106.278,480.077,111.183,482.139,116.322
		L482.139,116.322z M395.314,216.485c-0.901-0.203-1.817-0.349-2.707-0.581c-2.105-0.544-4.182-1.194-6.221-1.947
		c-2.126-0.75-4.209-1.619-6.238-2.602c-7.905-3.648-15.099-8.671-21.246-14.836c-1.119-1.115-2.15-2.291-3.188-3.463
		c10.919,3.289,22.245,5.035,33.648,5.188c14.327,1.11,28.412-4.167,38.482-14.419c3.535,1.284,7.086,2.532,10.744,3.668
		c-4.019,4.338-8.415,8.312-13.135,11.874C416.125,206.258,406.007,212.004,395.314,216.485L395.314,216.485z M358.902,90.617
		c2.312-2.306,4.77-4.461,7.358-6.453c1.706,0.803,3.386,1.672,4.929,2.526c14.928,8.371,27.645,20.18,37.098,34.447
		c8.541,11.959,12.506,26.586,11.176,41.221c-28.553-12.42-53.355-32.102-71.937-57.087
		C350.695,99.933,354.516,95.01,358.902,90.617L358.902,90.617z M410.531,176.766c-15.006,9.337-45.477,3.083-60.686-3.572
		c-2.107-0.93-4.164-1.96-6.172-3.09c-0.834-0.47-1.63-1.017-2.445-1.53c-0.674-1.856-1.272-3.728-1.768-5.614
		c-0.549-2.09-1.032-4.205-1.402-6.512c-0.881-4.934-1.244-9.946-1.082-14.955c0.008-0.148,0.008-0.295,0.008-0.447
		c0.017-0.176,0.025-0.357,0.025-0.537c0.023-1.416,0.124-2.829,0.303-4.234c0.041-0.336,0.148-1.311,0.148-1.648
		c0.098-1.029,0.246-2.098,0.467-3.295c0.391-2.475,0.936-4.924,1.631-7.332c0.094-0.357,0.254-0.692,0.355-1.048
		C359.009,146.074,383.173,164.487,410.531,176.766L410.531,176.766z M440.205,74.105c2.856,1.16,5.637,2.497,8.326,4.004
		c2.658,5.319,18.951,40.149,9.281,75.414c-1.904,6.891-4.728,13.494-8.395,19.631c-4.846-1.367-9.586-2.873-14.219-4.516
		c3.565-19.969-1.142-40.53-13.041-56.958c-10.15-15.109-23.468-27.827-39.029-37.269c15.041-6.181,31.666-7.381,47.439-3.424
		c0.335,0.118,0.678,0.217,1.025,0.295c1.007,0.216,2.001,0.491,2.975,0.824c0.435,0.18,0.885,0.324,1.344,0.43
		c0.344,0.09,0.684,0.198,1.016,0.324L440.205,74.105z M241.863,109.297c-3.506,10.052-12.987,16.787-23.633,16.787
		c-10.646,0-20.127-6.735-23.633-16.787H241.863z M194.596,92.511c3.506-10.052,12.987-16.787,23.633-16.787
		c10.646,0,20.127,6.735,23.633,16.787H194.596z M243.41,16.97v50.575c-14.825-11.477-35.536-11.477-50.361,0V16.97H243.41z
		 M176.262,16.97v83.934c0,23.178,18.789,41.967,41.967,41.967s41.967-18.789,41.967-41.967V16.97h58.754v33.574
		c0,55.627-45.094,100.721-100.721,100.721S117.508,106.17,117.508,50.543V16.97H176.262z M100.721,16.97v33.574
		c0,64.898,52.61,117.508,117.508,117.508s117.508-52.61,117.508-117.508V16.97h83.934v35.345
		c-20.435-1.769-40.868,3.42-57.982,14.725c-0.504,0.267-0.98,0.586-1.418,0.952c-4.727,3.165-9.153,6.758-13.223,10.732
		c-6.542,6.592-12.041,14.143-16.307,22.392c-0.344,0.529-0.625,1.097-0.837,1.692c-2.735,5.336-4.922,10.935-6.528,16.711
		c-0.842,2.945-1.507,5.938-1.992,8.963c-0.271,1.484-0.484,3.029-0.557,3.939c-0.132,0.752-0.212,1.512-0.238,2.275
		c-0.218,1.852-0.341,3.714-0.369,5.578c-0.008,0.201-0.017,0.41-0.017,0.607c-0.212,6.142,0.225,12.29,1.303,18.34
		c0.426,2.709,1.025,5.357,1.713,8.008c0.697,2.623,1.492,5.193,2.41,7.652c0.912,2.564,1.966,5.076,3.156,7.525
		c9.087,19.422,24.71,35.032,44.139,44.102c2.5,1.215,5.067,2.287,7.688,3.213c2.547,0.942,5.141,1.753,7.771,2.43
		c1.721,0.447,3.418,0.755,5.123,1.096c0.343,0.097,0.692,0.171,1.044,0.223c0.551,0.101,1.128,0.273,1.669,0.357
		c5.076,0.908,10.222,1.367,15.378,1.373c1.082,0,2.156-0.02,3.23-0.061c0.139,0,0.279-0.004,0.426-0.012v0.012
		c1.49-0.025,2.955-0.151,4.418-0.287v8.742H276.314c-4.137-28.899-28.89-50.361-58.084-50.361s-53.947,21.462-58.084,50.361H16.787
		V16.97H100.721z M177.111,243.592c3.988-19.54,21.176-33.574,41.119-33.574s37.131,14.034,41.119,33.574H177.111z M259.348,260.379
		c-3.988,19.54-21.176,33.574-41.119,33.574s-37.131-14.034-41.119-33.574H259.348z M194.596,394.674
		c3.506-10.052,12.987-16.787,23.633-16.787c10.646,0,20.127,6.735,23.633,16.787H194.596z M241.863,411.461
		c-3.506,10.052-12.987,16.787-23.633,16.787c-10.646,0-20.127-6.735-23.633-16.787H241.863z M193.049,487.002v-50.575
		c14.825,11.477,35.536,11.477,50.361,0v50.575H193.049z M260.197,487.002v-83.934c0-23.178-18.789-41.967-41.967-41.967
		s-41.967,18.789-41.967,41.967v83.934h-58.754v-33.574c0-55.627,45.094-100.721,100.721-100.721s100.721,45.094,100.721,100.721
		v33.574H260.197z M335.738,487.002v-33.574c0-64.898-52.61-117.508-117.508-117.508s-117.508,52.61-117.508,117.508v33.574H16.787
		V260.379h143.359c4.137,28.899,28.89,50.361,58.084,50.361s53.947-21.462,58.084-50.361h143.359v226.623H335.738z M431.508,215.896
		c-0.185,0.052-0.399,0.076-0.584,0.126c1.557-1.08,3.164-2.137,4.642-3.257c7.847-5.883,14.894-12.764,20.963-20.468
		c3.364,0.772,6.777,1.592,9.988,2.209c0.159,0.03,0.297,0.045,0.457,0.075c-0.593,0.632-1.094,1.322-1.711,1.937
		C455.916,205.841,444.271,212.526,431.508,215.896L431.508,215.896z"/>
</g>
<g>
</g>
<g>
</g>
<g>
</g>
<g>
</g>
<g>
</g>
<g>
</g>
<g>
</g>
<g>
</g>
<g>
</g>
<g>
</g>
<g>
</g>
<g>
</g>
<g>
</g>
<g>
</g>
<g>
</g>
</svg>
