<svg xmlns="http://www.w3.org/2000/svg" width="16" height="16" viewBox="0 0 16 16"><defs><style>.a{fill:#fff;fill-rule:evenodd;}</style></defs><g transform="translate(-21.662 -21.022)"><path class="a" d="M24.212,21.238a7.77,7.77,0,0,0-2.438,2.348c-1.141,3,6.688,11.868,11.7,13.253,1.412.39,1.9.217,3.069-1.078,1.646-1.832,1.557-2.227-.861-3.806-2.067-1.35-2.179-1.374-3.418-.746a6.7,6.7,0,0,1-1.016.453,44.915,44.915,0,0,1-4.066-4.014c-.116-.213-.032-.532.285-1.087.671-1.175.594-1.583-.657-3.463-1.475-2.216-1.6-2.308-2.6-1.859M31,22.258a11.355,11.355,0,0,0-1.441,1.4,13.96,13.96,0,0,0,2.975,2.571c.686,0,.528-.609-.362-1.392l-.887-.781h1.4c2.747,0,3.382.671,3.383,3.577v1.856h.905V27.553c0-3.346-.746-4.213-3.78-4.392l-1.727-.1.762-.651c.79-.676.96-1.135.487-1.317-.176-.068-.795.352-1.72,1.168m-4.974,1.385,1.051,1.58-.6,1.126-.6,1.126.751.974a27.5,27.5,0,0,0,3.9,3.849l.7.527,1.129-.6,1.129-.6,1.658,1.115c1.888,1.27,1.876,1.19.419,2.615l-.9.879-.97-.283c-3.828-1.116-10.2-7.593-11-11.192l-.176-.785.982-.952c1.273-1.234,1.3-1.228,2.53.628" transform="translate(0)"/></g></svg>