<svg xmlns="http://www.w3.org/2000/svg" width="62.001" height="50.735" viewBox="0 0 62.001 50.735">
  <g id="noun_Car_258936" transform="translate(-8.9 -16)">
    <g id="Group_691" data-name="Group 691" transform="translate(8.9 16)">
      <path id="Path_971" data-name="Path 971" d="M24.223,50a5.223,5.223,0,1,0,5.223,5.223A5.191,5.191,0,0,0,24.223,50Zm0,7.461a2.238,2.238,0,1,1,2.238-2.238A2.2,2.2,0,0,1,24.223,57.461Z" transform="translate(-11.464 -24.633)" fill="#926a4a"/>
      <path id="Path_972" data-name="Path 972" d="M73.223,50a5.223,5.223,0,1,0,5.223,5.223A5.191,5.191,0,0,0,73.223,50Zm0,7.461a2.238,2.238,0,1,1,2.238-2.238A2.2,2.2,0,0,1,73.223,57.461Z" transform="translate(-23.906 -24.633)" fill="#926a4a"/>
      <rect id="Rectangle_1062" data-name="Rectangle 1062" width="20" height="3" transform="translate(21.1 25.735)" fill="#926a4a"/>
      <rect id="Rectangle_1063" data-name="Rectangle 1063" width="20" height="3" transform="translate(21.1 31.735)" fill="#926a4a"/>
      <path id="Path_973" data-name="Path 973" d="M68.364,27.49l-5.67,1.045-1.94-7.983A5.985,5.985,0,0,0,54.934,16H24.12a5.985,5.985,0,0,0-5.82,4.551l-1.94,7.983-5.67-1.045A1.532,1.532,0,0,0,8.9,28.982v2.91a1.518,1.518,0,0,0,1.268,1.492l4.775.9-.149.6a5.932,5.932,0,0,0-4.4,5.745V56.289a2.993,2.993,0,0,0,2.984,2.984V64.5a2.2,2.2,0,0,0,2.238,2.238h7.461A2.2,2.2,0,0,0,25.314,64.5V59.274h29.1V64.5a2.2,2.2,0,0,0,2.238,2.238h7.461A2.2,2.2,0,0,0,66.349,64.5V59.274a2.993,2.993,0,0,0,2.984-2.984V40.621a5.9,5.9,0,0,0-5.148-5.894l-.075-.448,4.775-.9c.746-.149,2.014-.746,2.014-1.492v-2.91C70.9,28.087,69.334,27.341,68.364,27.49ZM21.211,21.3a2.963,2.963,0,0,1,2.91-2.313H55.009a2.963,2.963,0,0,1,2.91,2.313l3.208,13.355H18ZM22.4,63.75H16.436V59.274H22.4Zm41.035,0H57.471V59.274H63.44Zm2.984-23.129V56.289H13.451V40.621a2.993,2.993,0,0,1,2.984-2.984h47A2.993,2.993,0,0,1,66.424,40.621Z" transform="translate(-8.9 -16)" fill="#926a4a"/>
    </g>
  </g>
</svg>
