<svg xmlns="http://www.w3.org/2000/svg" width="57.839" height="59.742" viewBox="0 0 57.839 59.742">
  <g id="Group_694" data-name="Group 694" transform="translate(-1848.062 -1265.385)">
    <g id="noun_Call_Center_2588715" data-name="noun_Call Center_2588715" transform="translate(1922 1330.948)">
      <path id="Path_970" data-name="Path 970" d="M63.729,48.2V24.258a15.821,15.821,0,0,0-31.643,0v1.87a4.016,4.016,0,0,0-1.2,2.861v2.542a4.016,4.016,0,0,0,1.2,2.861V48.2a13.446,13.446,0,0,0-7.172,11.945v6.577a1.461,1.461,0,0,0,1.461,1.461H69.44A1.461,1.461,0,0,0,70.9,66.718V60.141A13.447,13.447,0,0,0,63.729,48.2ZM47.907,11.359a12.914,12.914,0,0,1,12.9,12.9V47.035l-5.513-1.674v-4.3q.345-.368.665-.758A1.461,1.461,0,0,0,58.85,40v-14.3a1.459,1.459,0,0,0-.8-2.683c-2.959,0-3.922-2.222-4.457-5.558a1.461,1.461,0,0,0-2.853-.149c-.675,2.5-1.591,4.091-2.913,4.962a11.712,11.712,0,0,0-.366-2.6,1.461,1.461,0,0,0-2.549-.553c-1.289,1.589-4.717,3.9-7.153,3.9A1.461,1.461,0,0,0,36.3,24.487a1.444,1.444,0,0,0,.086.475h-1.38v-.7A12.915,12.915,0,0,1,47.907,11.359ZM37.382,33.473H34.917a1.943,1.943,0,0,1-1.941-1.941V28.99a1.943,1.943,0,0,1,1.941-1.941h2.465Zm.133,2.087a4.3,4.3,0,0,0,4.167,3.256h2.678a2.291,2.291,0,0,0,2.219,1.739H48.61A2.292,2.292,0,0,0,50.9,38.266v-.988A2.292,2.292,0,0,0,48.61,34.99H46.579a2.291,2.291,0,0,0-2.219,1.739H41.682a2.215,2.215,0,0,1-2.213-2.213V26.005a1.035,1.035,0,0,0-.033-.248,14.6,14.6,0,0,0,5.428-2.628,1.944,1.944,0,0,1-.19.651,1.461,1.461,0,0,0,1.278,2.168,1.484,1.484,0,0,0,.21-.015,7.932,7.932,0,0,0,5.737-3.8,6.384,6.384,0,0,0,4.028,3.537v8.617l-.1.293a12.079,12.079,0,0,1-5.259,6.576,4.575,4.575,0,0,1-2.353.652h-.624a4.571,4.571,0,0,1-2.353-.652,12.076,12.076,0,0,1-1.766-1.292h-1.8a5.305,5.305,0,0,1-2.7-.739,15.125,15.125,0,0,0,1.537,1.934V45.36l-5.513,1.675V35.56Zm8.862,1.719a.2.2,0,0,1,.2-.2h2.031a.2.2,0,0,1,.2.2v.988a.2.2,0,0,1-.2.2H46.578a.2.2,0,0,1-.2-.2Zm1.531,11.068a5.138,5.138,0,0,1-4.465-2.194V43.467c.1.063.2.129.3.19A7.493,7.493,0,0,0,47.6,44.724h.624a7.5,7.5,0,0,0,3.856-1.067c.1-.06.2-.125.3-.187v2.683A5.138,5.138,0,0,1,47.907,48.347Zm-5.753-.429a7.157,7.157,0,0,0,4.189,2.364L42.38,54.1l-2.2-5.579Zm11.506,0,1.991.6-2.2,5.574-3.966-3.818A7.158,7.158,0,0,0,53.66,47.918ZM67.979,65.257H27.836V60.141A10.562,10.562,0,0,1,35.37,49.978l2.8-.852,2.836,7.186a1.042,1.042,0,0,0,.749.636,1.031,1.031,0,0,0,.222.024,1.044,1.044,0,0,0,.724-.292l5.21-5.016,5.21,5.016a1.044,1.044,0,0,0,.723.292,1.024,1.024,0,0,0,.222-.024,1.043,1.043,0,0,0,.749-.636l2.834-7.181,2.79.847a10.561,10.561,0,0,1,7.535,10.163v5.116Z" transform="translate(-87 -74)" fill="#926a4a"/>
    </g>
    <g id="noun_call_2091475" transform="translate(1834 1280.532)">
      <path id="Path_974" data-name="Path 974" d="M17.3,5a1.981,1.981,0,0,0-.8.185A4.516,4.516,0,0,0,14.068,9.24a18.1,18.1,0,0,0,2.577,6.912,18.084,18.084,0,0,0,4.7,5.688,4.517,4.517,0,0,0,4.731-.084,1.569,1.569,0,0,0,.676-1.819,6.432,6.432,0,0,0-1.255-2.178,1.16,1.16,0,0,0-1.307-.335l-.586.225a2.5,2.5,0,0,1-2.756-.656,13.491,13.491,0,0,1-1.654-2.31,13.479,13.479,0,0,1-1.174-2.587,2.5,2.5,0,0,1,.81-2.715l.488-.4a1.159,1.159,0,0,0,.363-1.3,6.434,6.434,0,0,0-1.259-2.176A1.519,1.519,0,0,0,17.3,5Z" transform="translate(0 0)" fill="#926a4a"/>
      <path id="Path_975" data-name="Path 975" d="M62.572,22.9l.1.007a.338.338,0,0,0,.36-.325c0-.118.006-.235.006-.349a9.408,9.408,0,0,0-4.969-8.251.339.339,0,0,0-.466.148l-.045.093a.334.334,0,0,0,.14.441,8.627,8.627,0,0,1,4.564,7.569c0,.1,0,.21-.006.318A.336.336,0,0,0,62.572,22.9Z" transform="translate(-35.028 -7.209)" fill="#926a4a"/>
      <path id="Path_976" data-name="Path 976" d="M56.569,30.769l.1.008a.338.338,0,0,0,.363-.329q0-.092,0-.184a7.243,7.243,0,0,0-3.756-6.317.339.339,0,0,0-.468.148l-.045.093a.334.334,0,0,0,.139.439,6.462,6.462,0,0,1,3.354,5.637q0,.082,0,.163A.335.335,0,0,0,56.569,30.769Z" transform="translate(-31.167 -15.235)" fill="#926a4a"/>
      <path id="Path_977" data-name="Path 977" d="M50.561,38.62l.1.009a.335.335,0,0,0,.367-.33v-.022a5.082,5.082,0,0,0-2.543-4.385.338.338,0,0,0-.471.147l-.045.093a.334.334,0,0,0,.133.434,4.3,4.3,0,0,1,2.15,3.71A.339.339,0,0,0,50.561,38.62Z" transform="translate(-27.302 -23.248)" fill="#926a4a"/>
    </g>
  </g>
</svg>
