<svg height="512pt" viewBox="0 -107 512 512" width="512pt" xmlns="http://www.w3.org/2000/svg"><path d="m7.503906 233.078125h35.785156v57.101563h-35.785156zm0 0" fill="#bfbfbf"/><path d="m25.394531 233.078125h17.894531v57.101563h-17.894531zm0 0" fill="#acacac"/><path d="m468.710938 233.078125h35.785156v57.101563h-35.785156zm0 0" fill="#bfbfbf"/><path d="m486.605469 233.078125h17.890625v57.101563h-17.890625zm0 0" fill="#acacac"/><path d="m7.503906 189.824219h496.992188v43.253906h-496.992188zm0 0" fill="#e7e7e7"/><path d="m486.605469 189.824219h17.890625v43.253906h-17.890625zm0 0" fill="#cecece"/><path d="m173.054688 189.824219h-165.550782v-19.242188c0-11.101562 9.003906-20.105469 20.105469-20.105469h125.335937c11.105469 0 20.105469 9.003907 20.105469 20.105469v19.242188zm0 0" fill="#f72c2c"/><path d="m173.050781 170.585938v19.234374h-18.964843v-19.234374c0-11.101563-9.007813-20.109376-20.109376-20.109376h18.96875c11.101563 0 20.105469 9.003907 20.105469 20.109376zm0 0" fill="#e32929"/><path d="m31.851562 113.039062h25.007813v37.4375h-25.007813zm0 0" fill="#bfbfbf"/><path d="m123.695312 113.039062h25.011719v37.4375h-25.011719zm0 0" fill="#bfbfbf"/><path d="m136.199219 113.039062h12.503906v37.4375h-12.503906zm0 0" fill="#acacac"/><path d="m44.355469 113.039062h12.503906v37.4375h-12.503906zm0 0" fill="#acacac"/><path d="m150.980469 113.039062h-121.402344c-5.210937 0-9.429687-4.222656-9.429687-9.429687v-86.675781c0-5.207032 4.21875-9.429688 9.429687-9.429688h121.402344c5.207031 0 9.429687 4.222656 9.429687 9.429688v86.675781c0 5.207031-4.222656 9.429687-9.429687 9.429687zm0 0" fill="#ff5757"/><path d="m160.414062 16.933594v86.671875c0 5.210937-4.222656 9.433593-9.433593 9.433593h-20.289063c5.210938 0 9.4375-4.222656 9.4375-9.433593v-86.671875c0-5.203125-4.226562-9.425782-9.4375-9.425782h20.289063c5.210937 0 9.433593 4.222657 9.433593 9.425782zm0 0" fill="#ff4343"/><path d="m338.773438 189.824219h-165.546876v-19.242188c0-11.101562 9-20.105469 20.101563-20.105469h125.339844c11.105469 0 20.105469 9.003907 20.105469 20.105469zm0 0" fill="#f72c2c"/><path d="m338.773438 170.585938v19.234374h-18.96875v-19.234374c0-11.101563-9.003907-20.109376-20.105469-20.109376h18.96875c11.101562 0 20.105469 9.003907 20.105469 20.109376zm0 0" fill="#e32929"/><path d="m197.574219 113.039062h25.007812v37.4375h-25.007812zm0 0" fill="#bfbfbf"/><path d="m289.417969 113.039062h25.007812v37.4375h-25.007812zm0 0" fill="#bfbfbf"/><path d="m301.921875 113.039062h12.503906v37.4375h-12.503906zm0 0" fill="#acacac"/><path d="m210.078125 113.039062h12.503906v37.4375h-12.503906zm0 0" fill="#acacac"/><path d="m316.703125 113.039062h-121.40625c-5.207031 0-9.429687-4.222656-9.429687-9.429687v-86.675781c0-5.207032 4.222656-9.429688 9.429687-9.429688h121.40625c5.207031 0 9.429687 4.222656 9.429687 9.429688v86.675781c0 5.207031-4.222656 9.429687-9.429687 9.429687zm0 0" fill="#ff5757"/><path d="m326.136719 16.933594v86.671875c0 5.210937-4.226563 9.433593-9.4375 9.433593h-20.285157c5.210938 0 9.433594-4.222656 9.433594-9.433593v-86.671875c0-5.203125-4.222656-9.425782-9.433594-9.425782h20.285157c5.210937 0 9.4375 4.222657 9.4375 9.425782zm0 0" fill="#ff4343"/><path d="m504.496094 189.824219h-165.550782v-19.242188c0-11.101562 9.003907-20.105469 20.105469-20.105469h125.339844c11.101563 0 20.105469 9.003907 20.105469 20.105469zm0 0" fill="#f72c2c"/><path d="m504.496094 170.585938v19.234374h-18.96875v-19.234374c0-11.101563-9.003906-20.109376-20.105469-20.109376h18.96875c11.097656 0 20.105469 9.003907 20.105469 20.109376zm0 0" fill="#e32929"/><path d="m363.292969 113.039062h25.011719v37.4375h-25.011719zm0 0" fill="#bfbfbf"/><path d="m455.140625 113.039062h25.007813v37.4375h-25.007813zm0 0" fill="#bfbfbf"/><path d="m467.644531 113.039062h12.503907v37.4375h-12.503907zm0 0" fill="#acacac"/><path d="m375.800781 113.039062h12.503907v37.4375h-12.503907zm0 0" fill="#acacac"/><path d="m482.421875 113.039062h-121.402344c-5.207031 0-9.429687-4.222656-9.429687-9.429687v-86.675781c0-5.207032 4.222656-9.429688 9.429687-9.429688h121.402344c5.210937 0 9.429687 4.222656 9.429687 9.429688v86.675781c0 5.207031-4.21875 9.429687-9.429687 9.429687zm0 0" fill="#ff5757"/><path d="m491.855469 16.933594v86.671875c0 5.210937-4.222657 9.433593-9.433594 9.433593h-20.285156c5.210937 0 9.433593-4.222656 9.433593-9.433593v-86.671875c0-5.203125-4.222656-9.425782-9.433593-9.425782h20.285156c5.210937 0 9.433594 4.222657 9.433594 9.425782zm0 0" fill="#ff4343"/><path d="m487.652344 143.171875v-23.460937c6.785156-2.210938 11.703125-8.589844 11.703125-16.101563v-86.675781c0-9.335938-7.59375-16.933594-16.933594-16.933594h-121.402344c-9.339843 0-16.933593 7.597656-16.933593 16.933594v86.675781c0 7.511719 4.917968 13.890625 11.703124 16.101563v23.460937c-6.652343.789063-12.585937 3.945313-16.929687 8.605469-4.34375-4.660156-10.277344-7.816406-16.929687-8.605469v-23.460937c6.785156-2.210938 11.707031-8.589844 11.707031-16.101563v-86.675781c0-9.335938-7.597657-16.933594-16.9375-16.933594h-121.402344c-9.335937 0-16.933594 7.597656-16.933594 16.933594v86.675781c0 7.511719 4.921875 13.890625 11.703125 16.101563v23.460937c-6.652344.789063-12.582031 3.945313-16.925781 8.605469-4.34375-4.660156-10.277344-7.816406-16.929687-8.605469v-23.460937c6.78125-2.210938 11.703124-8.589844 11.703124-16.101563v-86.675781c0-9.335938-7.597656-16.933594-16.933593-16.933594h-24.058594c-4.144531 0-7.503906 3.359375-7.503906 7.503906 0 4.148438 3.359375 7.507813 7.503906 7.507813h24.058594c1.0625 0 1.925781.863281 1.925781 1.925781v86.671875c0 1.0625-.863281 1.925781-1.925781 1.925781h-121.40625c-1.058594 0-1.921875-.863281-1.921875-1.925781v-86.671875c0-1.0625.863281-1.925781 1.921875-1.925781h62.328125c4.144531 0 7.503906-3.359375 7.503906-7.507813 0-4.144531-3.359375-7.503906-7.503906-7.503906h-62.328125c-9.335938 0-16.933594 7.597656-16.933594 16.933594v86.675781c0 7.511719 4.921875 13.890625 11.707031 16.101563v23.460937c-13.691406 1.621094-24.347656 13.292969-24.347656 27.410156v119.597657c0 4.144531 3.359375 7.503906 7.503906 7.503906h35.785156c4.144532 0 7.503907-3.359375 7.503907-7.503906v-49.597657h295.261719c4.144531 0 7.503906-3.359375 7.503906-7.503906 0-4.148437-3.359375-7.507813-7.503906-7.507813h-331.046876v-28.242187h481.980469v28.242187h-116.664062c-4.144531 0-7.503907 3.359376-7.503907 7.507813 0 4.144531 3.359376 7.503906 7.503907 7.503906h80.882812v49.597657c0 4.144531 3.359375 7.503906 7.503907 7.503906h35.785156c4.144531 0 7.503906-3.359375 7.503906-7.503906v-119.597657c0-14.117187-10.65625-25.789062-24.347656-27.410156zm-91.84375-.199219v-22.425781h51.828125v22.425781zm-25.007813-22.425781h10v22.425781h-10zm91.84375 0h10v22.425781h-10zm-103.550781-103.613281c0-1.0625.863281-1.925782 1.925781-1.925782h121.402344c1.0625 0 1.925781.863282 1.925781 1.925782v86.675781c0 1.0625-.863281 1.925781-1.925781 1.925781h-121.402344c-1.0625 0-1.925781-.863281-1.925781-1.925781zm-129.007812 126.039062v-22.425781h51.828124v22.425781zm-25.007813-22.425781h10v22.425781h-10zm91.84375 0h10v22.425781h-10zm-103.550781-103.613281c0-1.0625.863281-1.925782 1.925781-1.925782h121.402344c1.0625 0 1.929687.863282 1.929687 1.925782v86.675781c0 1.0625-.867187 1.925781-1.929687 1.925781h-121.402344c-1.0625 0-1.925781-.863281-1.925781-1.925781zm-52.171875 103.613281v22.425781h-10v-22.425781zm-76.835938 22.425781v-22.425781h51.828125v22.425781zm-15.007812-22.425781v22.425781h-10v-22.425781zm-13.570313 120.035156v42.09375h-20.777344v-42.09375zm-20.777344-58.261719v-11.738281c0-6.945312 5.652344-12.601562 12.601563-12.601562h125.335937c6.949219 0 12.601563 5.65625 12.601563 12.601562v11.738281zm165.722657 0v-11.738281c0-6.945312 5.652343-12.601562 12.597656-12.601562h125.34375c6.945313 0 12.597656 5.65625 12.597656 12.601562v11.738281zm165.71875 0v-11.738281c0-6.945312 5.65625-12.601562 12.601562-12.601562h125.339844c6.949219 0 12.597656 5.65625 12.597656 12.601562v11.738281zm150.542969 100.355469h-20.777344v-42.09375h20.777344zm0 0"/></svg>