<svg xmlns="http://www.w3.org/2000/svg" width="11" height="18.04" viewBox="0 0 11 18.04"><defs><style>.a{fill-rule:evenodd;}</style></defs><g transform="translate(-100 -24)"><path class="a" d="M100,24.77v.77l1.705,0c1.993.006,3.175.447,4.079,1.521s.838,1.114-2.594,1.114H100v1.54h6.828l-.135.605c-.45,2.019-2.075,3.129-4.83,3.3L100,33.742l.005.9c.005.885.082.974,3.54,4.149l3.534,3.245h1.08c1.457,0,1.521.093-2.412-3.52l-3.472-3.19L103.5,35.1a5.635,5.635,0,0,0,4.753-4.559l.153-.817H111V28.18h-1.408c-1.372,0-1.415-.017-1.642-.67a6.385,6.385,0,0,0-.7-1.32l-.463-.65H111V24H100v.77" transform="translate(0)"/></g></svg>