<svg height="512" viewBox="0 0 60 60" width="512" xmlns="http://www.w3.org/2000/svg"><g id="023---Skateboard" fill="none"><g id="Icons" transform="translate(1)"><path id="Shape" d="m54.19 23.19-32 32c-5.1077346 4.8800232-13.17768828 4.7880415-18.17286489-.2071351-4.9951766-4.9951766-5.08715829-13.0651303-.20713511-18.1728649 1.4-1.4-7.756 7.754 32-32 5.1077346-4.88002318 13.1776883-4.78804149 18.1728649.20713511 4.9951766 4.99517659 5.0871583 13.06513029.2071351 18.17286489z" fill="#cad9fc"/><path id="Shape" d="m52.19 21.19-32 32c-4.6885608 4.6910385-12.15676537 5.1004322-17.33.95-4.15043224-5.1732346-3.74103846-12.6414392.95-17.33 4.286-4.286-12.582 12.58 32-32 4.6873609-4.69372319 12.1576647-5.10323205 17.33-.95 4.1504322 5.17323463 3.7410385 12.6414392-.95 17.33z" fill="#e8edfc"/><path id="Shape" d="m53.04 28.59-4.24 4.24c-1.1712702 1.1698135-3.0687298 1.1698135-4.24 0l-1.42-1.42c-1.1698135-1.1712702-1.1698135-3.0687298 0-4.24l4.24-4.24c1.1753775-1.1693184 3.0746225-1.1693184 4.25 0l1.41 1.41c1.1698661 1.1751514 1.1698661 3.0748486 0 4.25z" fill="#a4c2f7"/><rect id="Rectangle-path" fill="#cad9fc" height="12" rx="3" transform="matrix(-.707 -.707 .707 -.707 45.413 40.629)" width="8" x="27.121" y="4.909"/><path id="Shape" d="m31.83 49.8-4.24 4.24c-1.1751514 1.1698661-3.0748486 1.1698661-4.25 0-.520207-.4623828-1.0111546-.9566702-1.47-1.48-1.1138745-1.1802167-1.0872904-3.0322402.06-4.18l4.24-4.24c1.173757-1.1637889 3.066243-1.1637889 4.24 0l1.42 1.42c1.1698135 1.1712702 1.1698135 3.0687298 0 4.24z" fill="#a4c2f7"/><g fill="#cad9fc"><path id="Shape" d="m50.99 26.67-4.24 4.24c-.9656019.9672273-2.4641339 1.1566022-3.64.46-1.1416044-1.1720868-1.1282311-3.0443406.03-4.2l4.24-4.24c.9698445-.9668544 2.4705916-1.1559896 3.65-.46 1.1286555 1.1788734 1.1109035 3.0428367-.04 4.2z"/><path id="Shape" d="m29.78 47.88-4.24 4.24c-.9769794.9723745-2.4908545 1.1538745-3.67.44-1.1138745-1.1802167-1.0872904-3.0322402.06-4.18l4.24-4.24c.9732198-.9717711 2.4841892-1.1534177 3.66-.44 1.1208512 1.1758662 1.0986573 3.0312811-.05 4.18z"/><rect id="Rectangle-path" height="12" rx="3" transform="matrix(-.707 -.707 .707 -.707 -5.8 61.841)" width="8" x="5.908" y="26.122"/></g><path id="Shape" d="m43.142 27.172-11.314-11.314 2.829-2.829 2.578 1.719c.9666785.6465413 2.2553087.5209846 3.079-.3.7532234-.7798698 1.8686337-1.0926378 2.917522-.8180915 1.0488883.2745464 1.8680231 1.0936812 2.1425695 2.1425695.2745463 1.0488883-.0382217 2.1642986-.8180915 2.917522-.8209846.8236913-.9465413 2.1123215-.3 3.079l1.719 2.578z" fill="#a4c2f7"/><path id="Shape" d="m21.929 48.385-11.314-11.314 2.829-2.828 2.578 1.719c.9679318.6448404 2.2563913.517208 3.079-.305.755851-.7680809 1.8655872-1.0717595 2.9072062-.7955552s1.8550755 1.0898526 2.1310343 2.1315366c.2759587 1.0416841-.0279815 2.1513487-.7962405 2.9070186-.8206095.823868-.9461392 2.1122205-.3 3.079l1.719 2.578z" fill="#a4c2f7"/></g><path id="Shape" d="m14.5 32.9c-2.9098759-.3288526-5.62153993-1.6370807-7.69-3.71-.33516359-.3328093-.65228338-.6833101-.95-1.05-4.15043224-5.1732346-3.74103846-12.6414392.95-17.33l1.15-1.15c-.56271905-.56262374-.87885933-1.32576248-.87885933-2.1215s.31614028-1.55887626.87885933-2.1215l4.24-4.245c.1859364-.18101962.3946988-.33700309.621-.464-1.1724553-.68490195-2.6591195-.49439873-3.621.464l-4.242 4.242c-.56271905.56262374-.87885933 1.32576248-.87885933 2.1215s.31614028 1.55887626.87885933 2.1215l-1.148 1.153c-4.69103846 4.6885608-5.10043224 12.1567654-.95 17.33.29771662.3666899.61483641.7171907.95 1.05 2.80563485 2.8109089 6.7462331 4.1785066 10.69 3.71z" fill="#fff" transform="translate(1 26)"/><path id="Shape" d="m.209 48.366 1.971-.336c.21342587 1.2134192.60463455 2.3887301 1.161 3.488.5837088 1.0850373 1.31462872 2.0841631 2.172 2.969l-1.413 1.413c-1.00271417-1.0299338-1.85572129-2.1956653-2.534-3.463-.65138387-1.2823348-1.1087062-2.6543018-1.357-4.071z" fill="#fff"/><g fill="#428dff"><path id="Shape" d="m2.493 52.987c-.35726559.001965-.6884409-.1868183-.8687754-.4952369s-.18243109-.6896164-.0055-1c.17693109-.3103835.50600981-.5027981.8632754-.5047631h.011c.55228475 0 1 .4477153 1 1s-.44771525 1-1 1z"/><path id="Shape" d="m46.031 0h-.031c-3.7151955-.0106768-7.2801852 1.46573306-9.9 4.1l-.555.554c-1.5700766-.88610154-3.5347571-.64259642-4.841.6l-4.24 4.24c-1.282598 1.2897694-1.5317312 3.2832463-.606 4.849l-11.515 11.515c-1.5662062-.9235496-3.5582551-.6745948-4.849.606l-4.243 4.243c-1.29391711 1.2845511-1.54443092 3.2861853-.607 4.85l-.544.543c-1.57362109 1.5928086-2.75122863 3.5328811-3.438 5.664-.67459229 2.1325042-.82990407 4.3953249-.453 6.6.0382558.2733722.19082479.5176298.41970529.6719334s.512529.2041293.78029471.1370666c.51057513-.1290641.84257563-.6212516.771-1.143-.32277876-1.8913962-.18941655-3.8325192.389-5.662.58942485-1.8245413 1.59763799-3.4858327 2.944-4.851l.445-.445.708.707c1.28472843 1.2927284 3.28525885 1.5431557 4.849.607l10.1 10.1c-.9232919 1.5664258-.6739233 3.5584988.607 4.849l.707.708-.446.445c-4.6862271 4.6859163-12.2837729 4.6859163-16.97 0-.39496678-.3581283-1.00143994-.3434114-1.37857112.0334529-.37713119.3768643-.39227744.9833269-.03442888 1.3785471 2.62555035 2.6258183 6.1867216 4.1010102 9.9 4.1010102s7.2744496-1.4751919 9.9-4.1010102l.546-.545c1.5638147.9374309 3.5654489.6869171 4.85-.607l4.243-4.243c1.282598-1.2897694 1.5317312-3.2832463.606-4.849l11.512-11.514c1.5635976.9360398 3.5638573.6860589 4.849-.606l4.243-4.243c1.2939171-1.2845511 1.5444309-3.2861853.607-4.85l.544-.543c2.6258183-2.6255504 4.1010102-6.1867216 4.1010102-9.9s-1.4751919-7.27444965-4.1010102-9.9c-2.6099065-2.63011071-6.1637265-4.10651782-9.869-4.1zm-18.153 10.908 4.243-4.242c.7915033-.75594024 2.0374967-.75594024 2.829 0l1.414 1.414c.7807639.7809997.7807639 2.0470003 0 2.828l-1.413 1.413-2.828 2.829c-.375096.375248-.8839266.5860729-1.4145.5860729s-1.039404-.2108249-1.4145-.5860729l-1.415-1.414c-.7810401-.7807236-.7814878-2.0467242-.001-2.828zm16.541 11.411 1.265 1.9-1.542 1.541-9.9-9.9 1.541-1.542 1.9 1.265c1.3653924.9047897 3.178701.7251301 4.34-.43.791167-.755814 2.036833-.755814 2.828 0 .7807639.7809997.7807639 2.0470003 0 2.828-1.1550823 1.1603155-1.3355661 2.9726739-.432 4.338zm-33.511 14.045c-.7809997.7807639-2.0470003.7807639-2.828 0l-1.414-1.414c-.37524801-.375096-.58607293-.8839266-.58607293-1.4145s.21082492-1.039404.58607293-1.4145l4.242-4.243c.7822521-.778679 2.0467479-.778679 2.829 0l1.414 1.415c.375248.375096.5860729.8839266.5860729 1.4145s-.2108249 1.039404-.5860729 1.4145l-1.414 1.414zm12.021 10.607-9.9-9.9 1.542-1.542 1.9 1.264c1.3651774.9063995 3.1796479.7270842 4.341-.429.5021489-.5199132 1.2457558-.7284252 1.9450146-.5453943.6992589.1830309 1.2453488.7291208 1.4283797 1.4283797.1830309.6992588-.0254811 1.4428657-.5453943 1.9450146-1.1564567 1.1611763-1.3357992 2.9759221-.429 4.341l1.264 1.9zm9.193 2.121-4.243 4.242c-.7915033.7559402-2.0374967.7559402-2.829 0l-1.414-1.414c-.7807639-.7809997-.7807639-2.0470003 0-2.828l2.828-2.829 1.414-1.414c.375096-.375248.8839266-.5860729 1.4145-.5860729s1.039404.2108249 1.4145.5860729l1.415 1.414c.375248.375096.5860729.8839266.5860729 1.4145s-.2108249 1.039404-.5860729 1.4145zm.706-4.95-.707-.707c-.7501514-.7501901-1.7675983-1.1716458-2.8285-1.1716458s-2.0783486.4214557-2.8285 1.1716458l-.551.552-1.042-1.564c-.3793915-.5713245-.3045833-1.3306907.179-1.817 1.5158888-1.5695155 1.4942095-4.0643391-.0487257-5.6072743s-4.0377588-1.5646145-5.6072743-.0487257c-.4863093.4835833-1.2456755.5583915-1.817.179l-1.564-1.042.552-.551c.7501901-.7501514 1.1716458-1.7675983 1.1716458-2.8285s-.4214557-2.0783486-1.1716458-2.8285l-.707-.707 11.314-11.314.707.707c1.285398 1.2913644 3.2849462 1.5416687 4.849.607l10.1 10.1c-.9232919 1.5664258-.6739233 3.5584988.607 4.849l.707.707zm20.506-16.263-4.242 4.243c-.375096.375248-.8839266.5860729-1.4145.5860729s-1.039404-.2108249-1.4145-.5860729l-1.414-1.415c-.375248-.375096-.5860729-.8839266-.5860729-1.4145s.2108249-1.039404.5860729-1.4145l2.829-2.828 1.413-1.413c.7809997-.7807639 2.0470003-.7807639 2.828 0l1.414 1.414c.375248.375096.5860729.8839266.5860729 1.4145s-.2108249 1.039404-.5860729 1.4145zm1.153-5.4-.445.446-.708-.707c-1.5619994-1.5615278-4.0940006-1.5615278-5.656 0l-.552.551-1.043-1.559c-.37858-.5713411-.3033732-1.3300948.18-1.816.7501901-.7501514 1.1716458-1.7675983 1.1716458-2.8285s-.4214557-2.0783486-1.1716458-2.8285c-1.5836906-1.5092067-4.0733094-1.5092067-5.657 0-.4859052.4833732-1.2446589.55858-1.816.18l-1.563-1.043.551-.552c1.5615278-1.5619994 1.5615278-4.09400059 0-5.656l-.707-.708.446-.445c3.0230409-3.07268415 7.4618446-4.28792518 11.6284534-3.18359962 4.1666089 1.10432556 7.4208207 4.35853736 8.5251462 8.52514622 1.1043256 4.1666088-.1109154 8.6054125-3.1835996 11.6284534z"/><path id="Shape" d="m41.314 17.272-.708.707c-.3907414.3907415-.3907414 1.0242585 0 1.415.3907415.3907414 1.0242585.3907414 1.415 0l.707-.708c.3789722-.3923789.3735524-1.0160848-.0121814-1.4018186s-1.0094397-.3911536-1.4018186-.0121814z"/><path id="Shape" d="m20.1 38.485-.707.707c-.2599566.2510745-.3642126.6228779-.2726972.9725073.0915155.3496295.3645604.6226744.7141899.7141899.3496294.0915154.7214328-.0127406.9725073-.2726972l.707-.707c.3789722-.3923789.3735524-1.0160848-.0121814-1.4018186s-1.0094397-.3911536-1.4018186-.0121814z"/></g></g></svg>