<svg xmlns="http://www.w3.org/2000/svg" width="67.787" height="67.503" viewBox="0 0 67.787 67.503">
  <g id="noun_price_2970210" transform="translate(-237.4 -99.794)">
    <g id="Group_690" data-name="Group 690" transform="translate(237.4 99.794)">
      <g id="Group_689" data-name="Group 689">
        <path id="Path_969" data-name="Path 969" d="M68.2,32.831l-5.477-3.7,2.916-5.9a4.166,4.166,0,0,0-3.414-5.975l-6.615-.427-.427-6.615a3.968,3.968,0,0,0-2.063-3.272A4.225,4.225,0,0,0,49.2,6.8L43.371,9.784l-3.7-5.477a4.268,4.268,0,0,0-6.829,0l-3.7,5.477-5.9-2.916a4.166,4.166,0,0,0-5.975,3.414L16.84,16.9l-6.615.427a3.968,3.968,0,0,0-3.272,2.063,4.089,4.089,0,0,0-.142,3.841l2.916,5.9-5.477,3.7a4.076,4.076,0,0,0,0,6.829l5.477,3.7-2.916,5.9a4.231,4.231,0,0,0,.213,3.912A4.068,4.068,0,0,0,10.3,55.237l6.615.427.427,6.615A3.968,3.968,0,0,0,19.4,65.551a4.225,4.225,0,0,0,3.912.142l5.9-2.916,3.7,5.477a4.076,4.076,0,0,0,6.829,0l3.7-5.477,5.9,2.916a4.166,4.166,0,0,0,5.975-3.414l.427-6.615,6.615-.427a3.968,3.968,0,0,0,3.272-2.063,4.225,4.225,0,0,0,.142-3.912l-2.916-5.9,5.477-3.7a4.19,4.19,0,0,0,1.849-3.414A4.756,4.756,0,0,0,68.2,32.831Zm-8.536,6.9a4.146,4.146,0,0,0-1.423,5.264l2.774,5.548-6.259.427a4.131,4.131,0,0,0-3.841,3.841L50.484,61l-5.548-2.774a4.146,4.146,0,0,0-5.264,1.423l-3.414,5.121-3.485-5.193a4.016,4.016,0,0,0-3.414-1.849,3.856,3.856,0,0,0-1.778.427l-5.548,2.774-.427-6.117a4.131,4.131,0,0,0-3.841-3.841l-6.188-.427,2.774-5.548a4.146,4.146,0,0,0-1.423-5.264L7.735,36.245l5.121-3.485A4.146,4.146,0,0,0,14.279,27.5L11.5,21.948l6.188-.427a4.131,4.131,0,0,0,3.841-3.841l.427-6.188,5.548,2.774a4.146,4.146,0,0,0,5.264-1.423l3.485-5.121,3.485,5.193a4.227,4.227,0,0,0,5.264,1.423l5.548-2.774.427,6.188a4.131,4.131,0,0,0,3.841,3.841l6.188.427-2.774,5.548a4.146,4.146,0,0,0,1.423,5.264l5.193,3.485Z" transform="translate(-2.4 -2.6)" fill="#926a4a"/>
        <g id="rupee-indian" transform="translate(26.603 22.235)">
          <g id="Group_359" data-name="Group 359" transform="translate(0 0)">
            <path id="Path_42" data-name="Path 42" d="M86.825,5.222c-.1-.1.15,0,0,0H83.743a4.562,4.562,0,0,0-1.027-2.055h4.11c.15,0-.1-.931,0-1.027s0,.15,0,0V.084c0-.15.1.1,0,0s.15,0,0,0H73.468c-.15,0,.1-.1,0,0s-1.027-.15-1.027,0V2.139c0,.139.926.926,1.027,1.027s-.139,0,0,0h2.055c2.256,0,3.5.847,4.11,2.055H73.468c-.15,0,.1-.1,0,0s-1.027-.15-1.027,0V7.277c0,.15.931-.1,1.027,0s-.15,0,0,0H80.66a3.951,3.951,0,0,1-2.055,2.055,5.838,5.838,0,0,1-3.082,1.027H73.468c-.139,0,.1-.1,0,0s-1.027-.139-1.027,0v2.055c0,.139.931.931,1.027,1.027,2.053,2.181,3.92,5.323,7.192,9.247.1.128.856,0,1.027,0H84.77c.225,0-.085.193,0,0a1.417,1.417,0,0,0,0-1.027c-3.122-3.828-5.407-6.317-7.192-8.22a7.385,7.385,0,0,0,4.11-2.055,6.887,6.887,0,0,0,2.055-4.11h3.082c.15,0-.1.1,0,0s0,.15,0,0V5.222C86.825,5.072,86.922,5.318,86.825,5.222Z" transform="translate(-72.441 -0.035)" fill="#926a4a"/>
          </g>
        </g>
      </g>
    </g>
  </g>
</svg>
